<svg viewBox="0 0 1000 500" xmlns="http://www.w3.org/2000/svg">      <path d="M 0,496.45759168004685 C 10.600000000000001,492.05461536551115 31.8,480.0145956388791 53,474.4427101073683 C 74.2,468.87082457585757 84.8,475.4074931534489 106,468.598164022493 C 127.2,461.7888348915371 137.8,449.02063714185016 159,440.3960644525888 C 180.2,431.77149176332745 190.8,432.48164938613326 212,425.4753005761862 C 233.2,418.4689517662392 243.8,420.6768766955912 265,405.3643204028536 C 286.2,390.051764110116 296.8,353.80506301303285 318,348.9125191124982 C 339.2,344.0199752119636 349.8,386.2150562415732 371,380.9016009001803 C 392.2,375.5881455587874 402.8,323.33673571631397 424,322.3452424055338 C 445.2,321.3537490947536 455.8,369.14135660059213 477,375.9441343462793 C 498.2,382.7469120919665 508.8,386.4757660709166 530,356.35913113396964 C 551.2,326.24249619702266 561.8,231.88796307304682 583,225.36095966154443 C 604.2,218.83395625004204 614.8,307.8752549957041 636,323.72411407645774 C 657.2,339.5729731572114 667.8,312.3092971188639 689,304.6052550653127 C 710.2,296.90121301176146 720.8,300.466615878208 742,285.20390380870145 C 763.2,269.94119173919495 773.8,238.4578060739756 795,228.29169471778005 C 816.2,218.12558336158452 826.8,240.39415355351812 848,234.37334702772375 C 869.2,228.35254050192938 879.8,220.31471100130346 901,198.18766208880822 C 922.2,176.06061317631298 932.8,117.81219616733432 954,123.73810246524761 C 975.2,129.6640087631609 996.4,207.0013753557493 1007,227.8171935783747,L 1000 500,L 0 500Z" fill="#17CF971a" />   <path d="M 0,496.45759168004685 C 10.600000000000001,492.05461536551115 31.8,480.0145956388791 53,474.4427101073683 C 74.2,468.87082457585757 84.8,475.4074931534489 106,468.598164022493 C 127.2,461.7888348915371 137.8,449.02063714185016 159,440.3960644525888 C 180.2,431.77149176332745 190.8,432.48164938613326 212,425.4753005761862 C 233.2,418.4689517662392 243.8,420.6768766955912 265,405.3643204028536 C 286.2,390.051764110116 296.8,353.80506301303285 318,348.9125191124982 C 339.2,344.0199752119636 349.8,386.2150562415732 371,380.9016009001803 C 392.2,375.5881455587874 402.8,323.33673571631397 424,322.3452424055338 C 445.2,321.3537490947536 455.8,369.14135660059213 477,375.9441343462793 C 498.2,382.7469120919665 508.8,386.4757660709166 530,356.35913113396964 C 551.2,326.24249619702266 561.8,231.88796307304682 583,225.36095966154443 C 604.2,218.83395625004204 614.8,307.8752549957041 636,323.72411407645774 C 657.2,339.5729731572114 667.8,312.3092971188639 689,304.6052550653127 C 710.2,296.90121301176146 720.8,300.466615878208 742,285.20390380870145 C 763.2,269.94119173919495 773.8,238.4578060739756 795,228.29169471778005 C 816.2,218.12558336158452 826.8,240.39415355351812 848,234.37334702772375 C 869.2,228.35254050192938 879.8,220.31471100130346 901,198.18766208880822 C 922.2,176.06061317631298 932.8,117.81219616733432 954,123.73810246524761 C 975.2,129.6640087631609 996.4,207.0013753557493 1007,227.8171935783747" fill="none" stroke="#17CF97" stroke-width="4px" />   <g>   		<circle cx="0" cy="496.45759168004685" r="8" fill="#17CF97" />,		<circle cx="53" cy="474.4427101073683" r="8" fill="#17CF97" />,		<circle cx="106" cy="468.598164022493" r="8" fill="#17CF97" />,		<circle cx="159" cy="440.3960644525888" r="8" fill="#17CF97" />,		<circle cx="212" cy="425.4753005761862" r="8" fill="#17CF97" />,		<circle cx="265" cy="405.3643204028536" r="8" fill="#17CF97" />,		<circle cx="318" cy="348.9125191124982" r="8" fill="#17CF97" />,		<circle cx="371" cy="380.9016009001803" r="8" fill="#17CF97" />,		<circle cx="424" cy="322.3452424055338" r="8" fill="#17CF97" />,		<circle cx="477" cy="375.9441343462793" r="8" fill="#17CF97" />,		<circle cx="530" cy="356.35913113396964" r="8" fill="#17CF97" />,		<circle cx="583" cy="225.36095966154443" r="8" fill="#17CF97" />,		<circle cx="636" cy="323.72411407645774" r="8" fill="#17CF97" />,		<circle cx="689" cy="304.6052550653127" r="8" fill="#17CF97" />,		<circle cx="742" cy="285.20390380870145" r="8" fill="#17CF97" />,		<circle cx="795" cy="228.29169471778005" r="8" fill="#17CF97" />,		<circle cx="848" cy="234.37334702772375" r="8" fill="#17CF97" />,		<circle cx="901" cy="198.18766208880822" r="8" fill="#17CF97" />,		<circle cx="954" cy="123.73810246524761" r="8" fill="#17CF97" />,		<circle cx="1007" cy="227.8171935783747" r="8" fill="#17CF97" />   </g> </svg>